<svg width="109" height="109" viewBox="0 0 109 109" fill="none" xmlns="http://www.w3.org/2000/svg">
    <path d="M51.9442 90.4564C52.7134 91.004 53.6341 91.2983 54.5784 91.2983C55.5226 91.2983 56.4433 91.004 57.2125 90.4564C58.5932 89.4799 91.0434 66.0495 90.9117 36.8011C90.9117 16.7679 74.6117 0.467812 54.5784 0.467812C34.5451 0.467812 18.245 16.7679 18.245 36.7784C18.1133 66.0495 50.5635 89.4799 51.9442 90.4564ZM54.5784 9.55114C69.6067 9.55114 81.8284 21.7728 81.8284 36.8239C81.9237 56.9798 61.8995 75.0783 54.5784 81.0143C47.2617 75.0738 27.233 56.9707 27.3284 36.8011C27.3284 21.7728 39.55 9.55114 54.5784 9.55114Z" fill="#00B37E"/>
    <path d="M71.697 81.2042L68.4833 87.2472L84.2181 84.6747C81.0428 83.0821 76.7443 81.9439 71.697 81.2042ZM31.1635 82.5217C23.8757 84.4437 19.2587 87.5932 19.2587 92.2711C19.2617 93.2782 19.4818 94.2728 19.9041 95.1871L45.1572 91.0595L31.1635 82.5217ZM89.5439 89.5427L54.3971 95.2713L63.6662 105.816C78.8873 104.453 90.1359 99.5906 90.1359 92.2711C90.1359 91.2955 89.9258 90.3883 89.5439 89.5427ZM48.4584 96.2602L24.7104 100.142C30.9876 104.03 42.067 106.22 54.6973 106.22C55.4628 106.22 56.2107 106.198 56.9645 106.182L48.4584 96.2602Z" fill="#00B37E"/>
    <path opacity="0.5" d="M48.4725 36.4725C48.5988 36.3509 48.821 36.1965 49.5274 36.1006C50.2829 36 51.3074 35.9977 52.8933 35.9977H57.244C58.8298 35.9977 59.8544 36 60.6075 36.1006C61.3163 36.1965 61.5385 36.3509 61.6601 36.4749C61.7864 36.5988 61.9408 36.8211 62.0344 37.5275C62.1373 38.283 62.1396 39.3075 62.1396 40.8934V45.244C62.1396 46.8299 62.1373 47.8544 62.0344 48.6076C61.9408 49.3163 61.7864 49.5385 61.6601 49.6601C61.5385 49.7864 61.3163 49.9408 60.6075 50.0344C59.8544 50.1373 58.8298 50.1396 57.244 50.1396H52.8933C51.3074 50.1396 50.2829 50.1373 49.5274 50.0344C48.821 49.9408 48.5988 49.7864 48.4748 49.6601C48.3509 49.5385 48.1965 49.3163 48.1006 48.6076C48 47.8544 47.9977 46.8299 47.9977 45.244V40.8934C47.9977 39.3075 48 38.283 48.1006 37.5275C48.1965 36.8211 48.3509 36.5988 48.4748 36.4749" fill="#00B37E"/>
    <path fill-rule="evenodd" clip-rule="evenodd" d="M56.7013 21.3108C56.7013 20.8778 56.5293 20.4625 56.2231 20.1563C55.9169 19.8501 55.5017 19.6781 55.0687 19.6781C54.6357 19.6781 54.2204 19.8501 53.9142 20.1563C53.608 20.4625 53.436 20.8778 53.436 21.3108V27.8367C52.2446 27.8367 51.157 27.85 50.173 27.8765V21.3108C50.157 20.8888 49.9781 20.4894 49.6739 20.1965C49.3697 19.9035 48.9638 19.7399 48.5415 19.7399C48.1192 19.7399 47.7133 19.9035 47.4091 20.1965C47.1049 20.4894 46.926 20.8888 46.91 21.3108V27.8367C46.91 27.9241 46.9163 28.0083 46.9287 28.0894C44.7394 28.3584 43.2213 28.915 42.0682 30.0682C40.915 31.2214 40.3583 32.7394 40.0893 34.9288C40.0055 34.918 39.9212 34.9117 39.8367 34.91H33.3108C32.8888 34.926 32.4894 35.1049 32.1964 35.4091C31.9035 35.7133 31.7399 36.1192 31.7399 36.5415C31.7399 36.9639 31.9035 37.3697 32.1964 37.6739C32.4894 37.9782 32.8888 38.157 33.3108 38.173H39.8765C39.8515 39.1554 39.8391 40.2431 39.8391 41.436H33.3108C32.8778 41.436 32.4625 41.608 32.1563 41.9142C31.8501 42.2204 31.6781 42.6357 31.6781 43.0687C31.6781 43.5017 31.8501 43.917 32.1563 44.2231C32.4625 44.5293 32.8778 44.7013 33.3108 44.7013H39.8367C39.8367 45.8927 39.85 46.9804 39.8765 47.9643H33.3108C32.8888 47.9803 32.4894 48.1592 32.1964 48.4634C31.9035 48.7676 31.7399 49.1735 31.7399 49.5958C31.7399 50.0181 31.9035 50.424 32.1964 50.7282C32.4894 51.0324 32.8888 51.2113 33.3108 51.2273H39.8367C39.9212 51.2256 40.0055 51.2194 40.0893 51.2086C40.3583 53.3979 40.915 54.916 42.0682 56.0691C43.2213 57.2223 44.7394 57.779 46.9287 58.048C46.9179 58.1318 46.9117 58.2161 46.91 58.3006V64.8266C46.926 65.2486 47.1049 65.648 47.4091 65.9409C47.7133 66.2338 48.1192 66.3974 48.5415 66.3974C48.9638 66.3974 49.3697 66.2338 49.6739 65.9409C49.9781 65.648 50.157 65.2486 50.173 64.8266V58.2608C51.1554 58.2858 52.2431 58.2983 53.436 58.2983V64.8266C53.436 65.2596 53.608 65.6749 53.9142 65.981C54.2204 66.2872 54.6357 66.4592 55.0687 66.4592C55.5017 66.4592 55.9169 66.2872 56.2231 65.981C56.5293 65.6749 56.7013 65.2596 56.7013 64.8266V58.3006C57.8927 58.3006 58.9803 58.2874 59.9643 58.2608V64.8266C59.9803 65.2486 60.1592 65.648 60.4634 65.9409C60.7676 66.2338 61.1735 66.3974 61.5958 66.3974C62.0181 66.3974 62.424 66.2338 62.7282 65.9409C63.0324 65.648 63.2113 65.2486 63.2273 64.8266V58.3006C63.2256 58.2161 63.2194 58.1318 63.2086 58.048C65.3979 57.779 66.916 57.2223 68.0691 56.0691C69.2223 54.916 69.779 53.3979 70.048 51.2086C70.1306 51.2226 70.2148 51.2289 70.3006 51.2273H76.8266C77.2486 51.2113 77.648 51.0324 77.9409 50.7282C78.2338 50.424 78.3974 50.0181 78.3974 49.5958C78.3974 49.1735 78.2338 48.7676 77.9409 48.4634C77.648 48.1592 77.2486 47.9803 76.8266 47.9643H70.2608C70.2858 46.9819 70.2982 45.8943 70.2982 44.7013H76.8266C77.2596 44.7013 77.6748 44.5293 77.981 44.2231C78.2872 43.917 78.4592 43.5017 78.4592 43.0687C78.4592 42.6357 78.2872 42.2204 77.981 41.9142C77.6748 41.608 77.2596 41.436 76.8266 41.436H70.3006C70.3006 40.2447 70.2873 39.157 70.2608 38.173H76.8266C77.2486 38.157 77.648 37.9782 77.9409 37.6739C78.2338 37.3697 78.3974 36.9639 78.3974 36.5415C78.3974 36.1192 78.2338 35.7133 77.9409 35.4091C77.648 35.1049 77.2486 34.926 76.8266 34.91H70.3006C70.2161 34.9117 70.1318 34.918 70.048 34.9288C69.779 32.7394 69.2223 31.2214 68.0691 30.0682C66.916 28.915 65.3979 28.3584 63.2086 28.0894C63.2194 28.0056 63.2256 27.9212 63.2273 27.8367V21.3108C63.2113 20.8888 63.0324 20.4894 62.7282 20.1965C62.424 19.9035 62.0181 19.7399 61.5958 19.7399C61.1735 19.7399 60.7676 19.9035 60.4634 20.1965C60.1592 20.4894 59.9803 20.8888 59.9643 21.3108V27.8765C58.8768 27.8505 57.7891 27.838 56.7013 27.8391V21.3108ZM49.0947 32.8657C50.0911 32.7324 51.3402 32.7324 52.7857 32.7324H57.3516C58.7995 32.7324 60.0438 32.7324 61.0426 32.8681C62.1139 33.0107 63.1384 33.3359 63.9711 34.1662C64.8015 34.9989 65.1266 36.0234 65.2693 37.0947C65.4049 38.0912 65.4049 39.3402 65.4049 40.7858V45.3516C65.4049 46.7995 65.4049 48.0438 65.2693 49.0426C65.1266 50.1139 64.8015 51.1384 63.9711 51.9711C63.1384 52.8015 62.1139 53.1266 61.0426 53.2693C60.0438 53.405 58.7971 53.405 57.3516 53.405H52.7857C51.3379 53.405 50.0911 53.405 49.0947 53.2693C48.0234 53.1266 46.9989 52.8015 46.1662 51.9711C45.3358 51.1384 45.0107 50.1139 44.868 49.0426C44.7324 48.0438 44.7324 46.7971 44.7324 45.3516V40.7858C44.7324 39.3379 44.7324 38.0912 44.868 37.0947C45.0107 36.0234 45.3358 34.9989 46.1662 34.1662C46.9989 33.3359 48.0234 33.0084 49.0947 32.8657Z" fill="#00B37E"/>
    <path d="M57.3282 39.6653C57.5603 39.3127 57.6467 38.8839 57.5694 38.4688C57.4921 38.0538 57.257 37.6849 56.9136 37.4394C56.5701 37.194 56.1449 37.0912 55.7272 37.1525C55.3095 37.2138 54.9318 37.4346 54.6734 37.7684L51.5648 42.119C51.3909 42.3631 51.2875 42.6504 51.266 42.9493C51.2446 43.2482 51.3058 43.5473 51.443 43.8138C51.5802 44.0802 51.7881 44.3038 52.044 44.4599C52.2998 44.6161 52.5936 44.6988 52.8934 44.699H54.0746L52.8092 46.472C52.6723 46.6455 52.5721 46.845 52.5146 47.0584C52.4571 47.2718 52.4435 47.4946 52.4747 47.7134C52.5059 47.9322 52.5812 48.1424 52.696 48.3313C52.8108 48.5201 52.9627 48.6837 53.1426 48.812C53.3225 48.9404 53.5266 49.031 53.7425 49.0781C53.9584 49.1253 54.1817 49.1282 54.3987 49.0865C54.6158 49.0449 54.8221 48.9596 55.0052 48.8358C55.1883 48.7121 55.3444 48.5525 55.464 48.3666L58.5726 44.016C58.7465 43.7719 58.8498 43.4846 58.8713 43.1857C58.8928 42.8867 58.8316 42.5877 58.6944 42.3212C58.5572 42.0547 58.3492 41.8312 58.0934 41.6751C57.8376 41.5189 57.5437 41.4362 57.244 41.436H56.0628L57.3282 39.6653Z" fill="#00B37E"/>
</svg>